<?xml version="1.0" standalone="no"?>
<!DOCTYPE svg PUBLIC "-//W3C//DTD SVG 20010904//EN"
 "http://www.w3.org/TR/2001/REC-SVG-20010904/DTD/svg10.dtd">
<svg version="1.0" xmlns="../../external.html?link=http://www.w3.org/2000/svg"
 width="499.000000pt" height="499.000000pt" viewBox="0 0 499.000000 499.000000"
 preserveAspectRatio="xMidYMid meet">
<metadata>
Created by potrace 1.14, written by Peter Selinger 2001-2017
</metadata>
<g transform="translate(0.000000,499.000000) scale(0.100000,-0.100000)"
fill="#000000" stroke="none">
<path d="M2526 4551 c-3 -4 -17 -6 -31 -3 -14 2 -31 -1 -38 -7 -8 -6 -17 -8
-21 -3 -11 10 -106 9 -106 -2 0 -4 -7 -5 -16 -2 -9 3 -20 3 -26 0 -8 -5 -101
-15 -170 -17 -16 -1 -28 -5 -28 -10 0 -5 -9 -7 -20 -4 -11 3 -22 2 -25 -3 -2
-4 -16 -6 -30 -5 -14 2 -25 0 -25 -4 0 -4 -16 -7 -35 -8 -19 0 -42 -4 -52 -9
-19 -8 -31 -11 -75 -15 -16 -2 -28 -7 -28 -11 0 -4 -7 -8 -16 -8 -9 0 -13 5
-9 13 4 6 1 5 -7 -4 -7 -9 -19 -14 -26 -11 -7 2 -19 -1 -27 -8 -8 -6 -19 -9
-25 -5 -5 3 -10 1 -10 -4 0 -6 -3 -10 -7 -9 -7 2 -28 -6 -115 -45 -16 -6 -28
-15 -28 -18 0 -4 -11 -10 -25 -13 -16 -4 -23 -11 -19 -18 4 -6 3 -8 -3 -5 -10
6 -104 -49 -111 -65 -2 -5 -10 -8 -18 -8 -8 0 -14 -5 -14 -11 0 -5 -4 -7 -10
-4 -5 3 -10 1 -10 -5 0 -6 -4 -9 -9 -5 -6 3 -13 0 -18 -7 -10 -15 -61 -52 -85
-61 -10 -3 -18 -13 -18 -21 0 -7 -7 -17 -16 -20 -8 -3 -12 -10 -9 -16 3 -5 0
-10 -8 -10 -8 0 -18 -7 -21 -16 -3 -8 -11 -12 -17 -8 -8 4 -9 3 -5 -5 4 -6 0
-18 -8 -27 -9 -9 -14 -20 -10 -25 3 -5 0 -8 -7 -7 -7 2 -14 -3 -15 -9 -1 -7
-2 -17 -3 -23 0 -5 -7 -10 -14 -10 -7 0 -13 -8 -14 -17 -2 -30 -9 -52 -18 -60
-4 -5 -4 -1 0 7 8 13 7 13 -8 1 -13 -10 -14 -17 -7 -26 7 -8 7 -14 1 -17 -9
-3 -15 -23 -28 -90 -3 -16 -9 -28 -13 -28 -4 0 -6 -11 -5 -25 2 -14 0 -25 -4
-25 -7 0 -8 -9 -14 -77 -1 -18 -5 -33 -9 -33 -5 0 -8 -14 -8 -31 0 -16 -3 -28
-7 -26 -5 3 -9 -14 -10 -36 -1 -23 -7 -43 -13 -45 -8 -3 -7 -8 1 -18 6 -8 7
-14 2 -14 -5 0 -9 -8 -10 -17 -3 -31 -11 -72 -17 -82 -4 -5 -2 -12 3 -15 5 -4
6 -19 2 -34 -4 -15 -7 -39 -6 -54 1 -16 -3 -28 -8 -28 -5 0 -5 -5 0 -12 6 -7
9 -22 7 -33 -1 -10 3 -26 9 -34 9 -12 9 -13 0 -7 -7 4 -13 2 -13 -3 0 -6 5
-11 11 -11 8 0 8 -4 2 -12 -8 -11 -10 -33 -4 -40 10 -12 8 -48 -2 -48 -9 0 -9
-2 1 -9 7 -4 14 -22 14 -39 1 -17 5 -29 9 -26 5 3 6 -2 3 -10 -3 -8 -1 -24 6
-35 8 -16 8 -21 -2 -21 -9 0 -9 -3 2 -10 8 -5 11 -10 6 -10 -5 0 -4 -6 2 -12
12 -15 12 -16 12 -59 0 -16 3 -28 8 -26 4 3 8 -15 8 -38 1 -24 5 -52 9 -62 5
-10 10 -31 12 -48 3 -16 10 -33 16 -37 6 -4 8 -10 4 -14 -4 -4 -2 -13 4 -21 6
-7 9 -13 6 -13 -3 0 5 -27 18 -59 13 -33 20 -62 17 -65 -3 -3 0 -6 7 -6 7 0 9
-4 6 -10 -3 -5 -1 -10 6 -10 6 0 9 -8 6 -20 -3 -11 -1 -20 4 -20 5 0 9 -7 9
-15 0 -8 4 -15 8 -15 5 0 9 -6 9 -12 2 -21 27 -82 40 -96 7 -7 13 -20 13 -27
0 -7 6 -20 13 -27 15 -15 17 -20 17 -49 0 -11 5 -17 10 -14 6 3 10 -3 10 -14
0 -12 4 -21 9 -21 8 0 24 -37 22 -52 -1 -5 4 -8 10 -8 5 0 8 -4 5 -8 -3 -5 3
-18 14 -29 10 -12 16 -24 13 -27 -4 -3 -1 -6 6 -6 7 0 9 -4 6 -10 -3 -5 -1
-10 5 -10 6 0 8 -4 5 -10 -3 -5 -1 -10 5 -10 6 0 8 -4 5 -10 -3 -5 -1 -10 4
-10 6 0 11 -8 11 -18 0 -9 10 -28 23 -42 13 -14 21 -32 19 -39 -3 -8 0 -11 7
-7 7 5 11 -1 11 -13 0 -12 4 -21 9 -21 5 0 14 -14 21 -30 7 -17 17 -30 23 -30
6 0 8 -3 5 -6 -5 -5 24 -58 50 -89 4 -5 19 -29 32 -52 13 -24 28 -43 32 -43 5
0 7 -4 4 -8 -3 -5 4 -19 15 -30 10 -12 20 -25 20 -29 1 -14 33 -63 41 -63 4 0
8 -6 8 -13 0 -7 9 -23 20 -35 12 -12 17 -22 13 -22 -4 -1 1 -8 13 -18 11 -9
21 -21 21 -27 2 -15 37 -65 46 -65 4 0 7 -6 7 -14 0 -8 7 -17 16 -20 9 -4 14
-9 11 -12 -3 -4 -1 -12 6 -19 7 -7 19 -23 27 -35 8 -13 25 -33 38 -46 13 -13
20 -24 17 -24 -3 0 5 -12 19 -27 14 -15 22 -31 19 -36 -3 -6 -1 -7 5 -3 7 4
12 3 12 -1 0 -8 39 -56 93 -115 15 -17 27 -34 27 -39 0 -5 7 -9 17 -9 9 0 14
-3 10 -6 -7 -8 38 -54 53 -54 6 0 8 -4 5 -10 -3 -5 5 -15 19 -22 14 -6 26 -18
26 -25 0 -8 4 -12 9 -8 5 3 16 -1 24 -9 8 -8 17 -12 21 -9 3 4 6 1 6 -5 0 -7
3 -11 8 -10 15 4 52 -14 52 -25 0 -7 4 -6 10 3 6 9 10 11 10 3 0 -7 7 -10 17
-6 12 5 14 3 8 -8 -7 -12 -6 -12 7 -1 13 10 18 10 24 1 5 -8 3 -10 -7 -4 -8 5
-11 4 -6 -1 4 -4 24 -7 43 -5 18 1 34 -2 34 -7 0 -5 8 -9 18 -9 40 0 53 -4 47
-13 -4 -7 3 -7 20 0 14 5 24 6 21 1 -8 -13 23 -23 47 -15 13 4 17 2 13 -5 -4
-6 -2 -11 3 -11 6 0 11 4 11 9 0 6 12 6 30 1 17 -5 42 -5 58 -1 15 5 35 7 45
5 9 -1 17 3 17 9 0 5 3 8 6 4 4 -3 20 1 36 9 16 8 33 12 38 9 6 -4 7 1 3 11
-4 11 -3 15 4 11 6 -4 17 -2 25 5 7 7 25 19 41 27 15 8 27 18 27 23 0 5 5 6
10 3 6 -3 10 -1 10 5 0 6 5 8 10 5 6 -3 10 -1 10 5 0 6 4 9 9 5 6 -3 13 1 18
8 4 7 24 22 43 33 37 20 176 134 164 134 -4 0 14 20 40 45 27 25 44 45 40 45
-5 0 -1 5 9 11 9 5 17 17 17 25 0 8 5 12 10 9 6 -3 10 0 10 7 0 8 9 20 19 28
11 7 18 17 15 22 -3 4 0 8 7 8 7 0 10 3 6 6 -3 4 -1 12 6 20 31 34 42 49 43
56 1 5 2 13 3 19 0 5 5 8 10 4 5 -3 15 11 21 30 6 19 16 32 21 29 6 -3 9 0 8
7 -3 20 12 50 21 44 5 -3 12 0 16 6 4 8 3 9 -4 5 -7 -4 -12 -2 -12 3 0 6 5 11
10 11 6 0 10 6 10 14 0 8 6 21 14 28 7 8 17 24 20 36 5 13 12 20 19 16 7 -4 9
-4 5 1 -4 4 -1 19 6 34 7 14 11 32 9 39 -3 8 1 10 13 5 11 -4 15 -3 10 5 -3 6
-2 13 4 17 6 4 8 11 5 16 -4 5 -1 9 4 9 6 0 10 6 9 13 -2 6 2 11 8 10 6 -1 11
3 12 10 2 30 12 59 26 73 14 14 18 28 15 51 0 3 6 10 15 15 9 5 14 13 11 19
-4 5 -2 9 3 9 9 0 26 56 23 73 -1 5 3 6 9 2 6 -4 13 7 16 24 4 17 10 31 15 31
5 0 6 7 3 15 -4 8 -1 15 6 15 7 0 10 7 6 16 -3 8 -2 13 3 10 10 -7 24 22 16
34 -2 4 4 15 15 25 11 10 20 23 20 28 0 6 -7 2 -16 -9 -9 -12 -7 -4 5 21 21
42 32 73 28 79 -1 2 6 13 16 24 11 12 16 26 12 31 -3 6 -1 11 4 11 6 0 10 3
10 8 -1 4 0 9 1 12 1 3 3 14 5 24 2 11 7 31 11 45 4 14 7 29 6 34 -1 4 2 7 8
7 5 0 6 7 3 17 -5 12 -3 14 7 8 8 -5 11 -3 8 6 -3 8 2 20 11 27 9 8 10 11 4 7
-16 -7 -17 11 -3 20 8 5 7 12 -2 23 -10 12 -10 14 0 8 7 -4 12 -1 12 9 0 10 5
14 13 9 9 -5 9 -4 0 6 -7 8 -8 19 -3 29 14 26 31 111 25 122 -4 5 -1 9 6 9 6
0 9 8 6 20 -3 11 -2 18 3 15 4 -2 11 14 14 38 11 67 12 71 19 92 3 11 9 34 12
50 13 78 17 90 28 97 8 5 8 8 1 8 -7 0 -9 10 -6 25 2 14 9 22 14 19 6 -4 6 2
-1 13 -6 11 -7 24 -3 28 7 6 11 42 15 127 1 20 5 34 9 32 4 -3 6 11 4 30 -1
20 2 38 8 40 7 3 7 5 -1 5 -8 1 -9 10 -4 29 4 15 7 34 6 42 0 8 4 18 10 22 6
5 2 8 -8 8 -12 0 -16 4 -11 12 9 15 12 148 3 148 -10 0 -5 44 6 52 6 5 6 8 -1
8 -6 0 -10 10 -10 23 1 12 -3 28 -8 36 -9 12 -8 13 4 6 13 -8 13 -6 1 8 -7 9
-11 24 -7 32 3 8 1 15 -5 15 -6 0 -8 9 -4 20 3 11 2 20 -4 20 -5 0 -8 9 -6 20
2 11 0 22 -5 25 -5 3 -7 12 -3 20 3 8 0 15 -7 15 -7 0 -10 7 -7 15 4 8 2 17
-3 20 -6 4 -10 15 -10 26 0 11 -4 17 -10 14 -6 -3 -7 1 -4 9 3 9 1 16 -5 16
-6 0 -11 9 -11 20 0 11 -5 20 -11 20 -5 0 -8 4 -5 9 3 5 -1 14 -9 21 -8 7 -15
19 -15 26 0 8 -4 14 -8 14 -8 0 -34 47 -34 60 0 3 -6 9 -14 13 -8 5 -12 12 -9
18 4 5 2 9 -3 9 -4 0 -19 19 -32 43 -29 50 -32 55 -92 118 -25 27 -51 49 -57
49 -6 0 -11 5 -11 10 0 6 -5 10 -11 10 -6 0 -17 7 -26 15 -8 8 -19 13 -24 10
-5 -4 -9 -1 -9 4 0 6 -7 11 -15 11 -8 0 -15 5 -15 10 0 6 -9 10 -20 10 -11 0
-20 4 -20 9 0 5 -15 14 -32 21 -18 8 -42 20 -52 29 -16 13 -18 14 -12 1 4 -8
0 -6 -8 4 -9 11 -16 16 -16 12 0 -5 -6 -3 -13 3 -8 6 -17 7 -21 3 -4 -4 -14 1
-21 12 -8 10 -19 15 -25 11 -6 -4 -18 -1 -26 6 -9 7 -21 14 -28 16 -12 2 -63
13 -86 18 -8 2 -15 4 -15 5 0 1 -13 4 -30 6 -16 3 -32 8 -35 12 -3 4 -16 7
-30 7 -14 0 -30 3 -35 7 -6 3 -26 9 -45 11 -19 3 -35 6 -35 7 0 1 -7 3 -15 5
-29 6 -75 16 -95 20 -11 2 -42 9 -70 15 -27 6 -65 13 -84 16 -18 2 -38 7 -44
11 -6 4 -7 1 -2 -6 5 -10 3 -11 -11 -4 -11 5 -34 9 -51 8 -18 -1 -33 2 -33 5
0 4 -7 7 -15 7 -8 0 -15 -5 -15 -10 0 -5 -6 -4 -14 2 -10 8 -16 9 -21 1 -4 -6
-12 -7 -24 0 -12 6 -22 5 -31 -3 -10 -9 -11 -9 -6 1 8 13 0 17 -8 3z"/>
</g>
</svg>
